<svg xmlns="http://www.w3.org/2000/svg" xmlns:xlink="http://www.w3.org/1999/xlink" viewBox="0 0 405.141 196.725">
  <defs>
    <linearGradient id="linear-gradient" x1="291.37" y1="128.717" x2="182.976" y2="128.717" gradientUnits="userSpaceOnUse">
      <stop offset="0.001" stop-color="#02bda5" stop-opacity="0"/>
      <stop offset="1" stop-color="#02bda5"/>
    </linearGradient>
    <linearGradient id="linear-gradient-2" x1="247.989" y1="179.828" x2="362.504" y2="116.344" xlink:href="#linear-gradient"/>
  </defs>
  <title>change-credit</title>
  <g id="change-illustrations">
    <g id="change-credit">
      <path id="c-i_mg" data-name="c-i mg" d="M180.328,141.817,60.448,129.389v39.663l117.763,12.209a19.924,19.924,0,0,0,4.232-.013l169.885-18.681a4.448,4.448,0,0,0,3.962-4.421V122.467Z" fill="#46d8bc"/>
      <polygon id="c-i_mg-2" data-name="c-i mg" points="180.328 141.817 167.961 140.535 177.023 129.491 258.06 133.269 180.328 141.817" fill="#46d8bc"/>
      <path id="c-i_lllg" data-name="c-i lllg" d="M295.036,95.957l-197.7-9.216,110.1-11.126,195.227,9.1a.183.183,0,0,1,.01.364Z" fill="#e5f9f3"/>
      <path id="c-i_white" data-name="c-i white" d="M292.729,95.849,97.335,86.741v39.036l195.394,9.108a31.308,31.308,0,0,0,4.606-.125l105.623-10.673a2.427,2.427,0,0,0,2.183-2.415V87.024a1.983,1.983,0,0,0-2.182-1.973L297.334,95.724A31.308,31.308,0,0,1,292.729,95.849Z" fill="#fff"/>
      <path id="c-i_dg-o" data-name="c-i dg-o" d="M220.726,76.234l-12.85,15.66-30.852,37.6-9.062,11.044,3.232.335L60.448,129.389v39.664l117.039,12.134a2.575,2.575,0,0,0,2.84-2.561V144.414a2.88,2.88,0,0,0-2.583-2.865l.793.082a16.859,16.859,0,0,0,3.58-.011l25.26-2.778a14.111,14.111,0,0,0,3.884-1l14.59-6.075L249.9,93.852l51.942-13.837Z" fill="url(#linear-gradient)"/>
      <path id="c-i_mg-3" data-name="c-i mg" d="M237.637,9.148,113.858,162.393a7.686,7.686,0,0,1-6.6,2.782L.211,156.01l15.41,30.622a4.552,4.552,0,0,0,3.739,2.494l104.9,7.553a5.448,5.448,0,0,0,4.6-1.978L252.987,43.384a2.823,2.823,0,0,0,.339-3.06Z" fill="#46d8bc"/>
      <path id="c-i_dg-o-2" data-name="c-i dg-o" d="M258.06,133.269l38.37,28.617a25.268,25.268,0,0,0,17.869,4.862l38.03-4.182a4.448,4.448,0,0,0,3.962-4.421V127.351l-61.254,7.642Z" fill="url(#linear-gradient-2)"/>
      <path id="c-i_lllg-2" data-name="c-i lllg" d="M.211,156.01l15.982,31.759a2.31,2.31,0,0,0,1.9,1.265l106.1,7.639a1.643,1.643,0,0,0,1.586-2.377L112.2,167.326a3.618,3.618,0,0,0-2.923-1.979Z" fill="#e5f9f3"/>
      <path id="c-i_white-2" data-name="c-i white" d="M108.075,165.29,2.514,157.733A2.671,2.671,0,0,1,.64,153.376L124.63,2.279A6.231,6.231,0,0,1,129.892.016L235.453,7.573a2.671,2.671,0,0,1,1.874,4.358l-123.99,151.1A6.231,6.231,0,0,1,108.075,165.29Z" fill="#fff"/>
      <path id="c-i_dg" data-name="c-i dg" d="M295.036,132.094V98.326a2.621,2.621,0,0,1,2.357-2.607L402.958,85.051a1.983,1.983,0,0,1,2.182,1.973v34.648a2.427,2.427,0,0,1-2.183,2.415L297.92,134.7A2.621,2.621,0,0,1,295.036,132.094Z" fill="#02bda5"/>
      <path id="c-i_lllg-3" data-name="c-i lllg" d="M207.734,48.067a5.686,5.686,0,0,1,1.09.938,5.65,5.65,0,0,0-3.764-1.856l-110.274-8.5L36.476,109.7l110.76,7.929a5.65,5.65,0,0,1,2.665.895h0Z" fill="#e5f9f3"/>
      <path id="c-i_dg-2" data-name="c-i dg" d="M209.672,50.242a5.608,5.608,0,0,0-.378-.641c-.014-.02-.031-.038-.046-.059a5.654,5.654,0,0,0-.41-.523L208.824,49a5.686,5.686,0,0,0-1.09-.938L149.9,118.528h0a5.67,5.67,0,0,1,1.1.926l.015.015a5.59,5.59,0,0,1,.4.506c.017.024.038.045.056.07a5.66,5.66,0,0,1,.377.626l.006.01,14.56,28.258,57.606-70.185Z" fill="#02bda5"/>
      <path d="M142.326,77.542c-7.916,12.429-24.456,22.5-36.942,22.5s-16.358-10.076-8.646-22.5,24.251-22.5,36.942-22.5S150.242,65.113,142.326,77.542Z" fill="#fff"/>
    </g>
  </g>
</svg>
