<svg xmlns="http://www.w3.org/2000/svg" xmlns:xlink="http://www.w3.org/1999/xlink" viewBox="0 0 258.188 238.352">
  <defs>
    <linearGradient id="linear-gradient" x1="179.022" y1="208.558" x2="195.686" y2="130.791" gradientTransform="translate(-78.222 23.678)" gradientUnits="userSpaceOnUse">
      <stop offset="0.001" stop-color="#02bda5" stop-opacity="0"/>
      <stop offset="1" stop-color="#02bda5"/>
    </linearGradient>
    <linearGradient id="linear-gradient-2" x1="1838.524" y1="4053.799" x2="1829.795" y2="4028.009" gradientTransform="translate(-4038.434 -1420.89) rotate(-45)" gradientUnits="userSpaceOnUse">
      <stop offset="0" stop-color="#fff"/>
      <stop offset="1" stop-color="#02bda5"/>
    </linearGradient>
    <linearGradient id="linear-gradient-3" x1="1870.426" y1="3924.585" x2="2053.47" y2="3928.288" gradientTransform="translate(-4006.336 -1366.711) rotate(-45)" xlink:href="#linear-gradient"/>
  </defs>
  <title>change-insurance</title>
  <g id="change-illustrations">
    <g id="change-insurance">
      <path d="M46.1,39.37A4.761,4.761,0,0,0,39.37,46.1L59.164,65.9,65.9,59.163Z" fill="#fff"/>
      <path id="c-i_mmg" data-name="c-i mmg" d="M12.17,235.818c3.223,3.223,9.428,3.159,17.887.285a297.855,297.855,0,0,1-9.466-36.743C10.408,217.349,6.909,230.556,12.17,235.818Z" fill="#69e5c8"/>
      <path id="c-i_mmg-2" data-name="c-i mmg" d="M235.818,12.17c-5.262-5.262-18.47-1.763-36.461,8.422A297.97,297.97,0,0,1,236.1,30.059C238.977,21.6,239.041,15.394,235.818,12.17Z" fill="#69e5c8"/>
      <path id="c-i_lllg" data-name="c-i lllg" d="M188.5,102.578c24.662-29.356,41.824-55.5,47.607-72.519a297.97,297.97,0,0,0-36.745-9.467c-17.9,10.135-40.537,26.89-64.8,48.232C151.714,77.958,170.113,89.672,188.5,102.578Z" fill="#e5f9f3"/>
      <path id="c-i_lllg-2" data-name="c-i lllg" d="M68.823,134.56c-21.342,24.263-38.1,46.9-48.231,64.8A297.855,297.855,0,0,0,30.058,236.1c17.018-5.782,43.163-22.944,72.518-47.607C89.67,170.115,77.956,151.716,68.823,134.56Z" fill="#e5f9f3"/>
      <path id="c-i_mmg-3" data-name="c-i mmg" d="M100.666,100.667C89.227,112.106,78.55,123.5,68.823,134.56c9.134,17.157,20.848,35.556,33.753,53.937,14.377-12.078,29.522-25.953,44.745-41.176s29.1-30.367,41.174-44.743c-18.382-12.906-36.781-24.62-53.938-33.754C123.5,78.551,112.1,89.228,100.666,100.667Z" fill="#69e5c8"/>
      <path id="c-i_dg-o" data-name="c-i dg-o" d="M235.818,12.17c-5.262-5.263-18.47-1.763-36.461,8.422-17.9,10.135-40.537,26.891-64.8,48.232-11.058,9.726-22.453,20.4-33.891,31.842S78.55,123.5,68.823,134.559c-21.342,24.263-38.1,46.9-48.231,64.8-10.184,17.99-13.683,31.2-8.421,36.458,3.223,3.223,9.428,3.159,17.887.285,17.018-5.783,43.162-22.944,72.518-47.606,14.377-12.078,29.522-25.953,44.745-41.176s29.1-30.367,41.174-44.743c24.662-29.356,41.824-55.5,47.607-72.519C238.977,21.6,239.041,15.393,235.818,12.17Z" fill="url(#linear-gradient)"/>
      <path id="c-i_dg-w" data-name="c-i dg-w" d="M251.385,225.635a22.792,22.792,0,0,1-32.193.29L97.3,104.033a4.761,4.761,0,0,1,6.733-6.733L225.925,219.192a13.453,13.453,0,0,0,19.016-19.016l-3.613-3.613a4.761,4.761,0,0,1,6.733-6.733l3.613,3.613A22.792,22.792,0,0,1,251.385,225.635Z" fill="url(#linear-gradient-2)"/>
      <path id="c-i_lllg-3" data-name="c-i lllg" d="M14.285,211.807C3.518,179.656,1.548,131.443,34.682,83.59c-44.85,60.544-38.234,119.078-24.138,149.744l.008-.008C8.7,228.8,10.1,221.375,14.285,211.807Z" fill="#e5f9f3"/>
      <path id="c-i_lllg-4" data-name="c-i lllg" d="M211.806,14.285c9.569-4.181,16.992-5.59,21.519-3.734l.008-.008c-30.666-14.1-89.2-20.712-149.748,24.142C131.44,1.548,179.654,3.517,211.806,14.285Z" fill="#e5f9f3"/>
      <path id="c-i_whitev" data-name="c-i whitev" d="M145.359,59.535c26.055-21.894,49.579-37.877,66.447-45.249C179.654,3.517,131.44,1.548,83.586,34.685A229.431,229.431,0,0,0,63.051,51.918C85.565,36.26,118.233,45.291,145.359,59.535Z" fill="#fff"/>
      <path id="c-i_whitev-2" data-name="c-i whitev" d="M14.285,211.807c7.371-16.868,23.354-40.391,45.248-66.445-14.244-27.125-23.276-59.794-7.618-82.308A229.63,229.63,0,0,0,34.682,83.59C1.548,131.443,3.518,179.656,14.285,211.807Z" fill="#fff"/>
      <path id="c-i_lllg-5" data-name="c-i lllg" d="M145.359,59.535C118.233,45.291,85.565,36.26,63.051,51.918c-1.89,1.776-3.778,3.582-5.665,5.469s-3.695,3.777-5.471,5.667c-15.658,22.514-6.626,55.183,7.618,82.308,12.068-14.362,25.928-29.49,41.133-44.7S131,71.6,145.359,59.535Z" fill="#e5f9f3"/>
      <path id="c-i_dg-o-2" data-name="c-i dg-o" d="M83.586,34.685A229.431,229.431,0,0,0,63.051,51.918c-1.89,1.776-3.778,3.582-5.664,5.468,1.34-1.34,2.693-2.611,4.051-3.855A117.132,117.132,0,0,1,76.5,41.771c35.532-23.217,74.594-19.5,103.425-8.851,12.086-8.361,22.928-14.721,31.881-18.634,9.569-4.181,16.992-5.59,21.519-3.734l.008-.008C202.668-3.552,144.131-10.169,83.586,34.685Z" fill="url(#linear-gradient-3)"/>
    </g>
  </g>
</svg>
