<svg xmlns="http://www.w3.org/2000/svg" xmlns:xlink="http://www.w3.org/1999/xlink" viewBox="0 0 387.688 204.456">
  <defs>
    <linearGradient id="linear-gradient" x1="150.973" y1="101.048" x2="32.262" y2="33.123" gradientUnits="userSpaceOnUse">
      <stop offset="0" stop-color="#fff"/>
      <stop offset="1" stop-color="#fff" stop-opacity="0"/>
    </linearGradient>
    <linearGradient id="linear-gradient-2" x1="250.004" y1="78.347" x2="331.896" y2="36.449" xlink:href="#linear-gradient"/>
    <linearGradient id="linear-gradient-3" x1="379.93" y1="83.917" x2="293.277" y2="107.723" gradientUnits="userSpaceOnUse">
      <stop offset="0.001" stop-color="#02bda5" stop-opacity="0"/>
      <stop offset="1" stop-color="#02bda5"/>
    </linearGradient>
    <linearGradient id="linear-gradient-4" x1="251.915" y1="53.757" x2="165.579" y2="112.478" xlink:href="#linear-gradient-3"/>
    <linearGradient id="linear-gradient-5" x1="85.839" y1="84.401" x2="239.783" y2="152.962" gradientUnits="userSpaceOnUse">
      <stop offset="0" stop-color="#fff"/>
      <stop offset="1" stop-color="#02bda5"/>
    </linearGradient>
    <linearGradient id="linear-gradient-6" x1="137.287" y1="158.005" x2="132.526" y2="178.637" xlink:href="#linear-gradient"/>
    <linearGradient id="linear-gradient-7" x1="166.95" y1="164.85" x2="162.189" y2="185.482" xlink:href="#linear-gradient"/>
    <linearGradient id="linear-gradient-8" x1="190.751" y1="170.343" x2="185.99" y2="190.975" xlink:href="#linear-gradient"/>
  </defs>
  <title>change-loans</title>
  <g id="change-illustrations">
    <g id="change-loans">
      <path id="c-i_w-o" data-name="c-i w-o" d="M.063,10.633,99.511,46.947A35.375,35.375,0,0,0,132.72,42.13L157.971,23.4a33.1,33.1,0,0,1,35.9-2.291h0l4.16,34.6,52.69,26.345,42.009,37.823a19.086,19.086,0,0,1,6.219,16.1l-.241,2.387a12.24,12.24,0,0,1-11.05,10.961l-7.1.658h0a18.3,18.3,0,0,1-3.917,20.592h0a16.411,16.411,0,0,1-16.088,4l-1.579-.464.469,8.443a9.069,9.069,0,0,1-8.187,9.531l-.2.02a34.4,34.4,0,0,1-14.817-1.817l-2.653-.941.375,4.489a5.36,5.36,0,0,1-2.338,4.886l-.131.089a20.042,20.042,0,0,1-17.325,2.5l-12.639-4.031L96.073,142.557a36.141,36.141,0,0,0-8.5-3.132L.063,119.188Z" fill="url(#linear-gradient)"/>
      <path id="c-i_llg" data-name="c-i llg" d="M95.864,142.449l2.545,8.577a12.479,12.479,0,0,0,16.7,8l7.093-2.909Z" fill="#b8f5e3"/>
      <path id="c-i_w-o-2" data-name="c-i w-o" d="M285.291,30.163a61.978,61.978,0,0,1-40.263-1.8L217.055,17.325a31.272,31.272,0,0,0-31.073,4.842L162.568,41.3a22.7,22.7,0,0,0-7.8,13.6,23.117,23.117,0,0,1-5.116,10.783l-7.337,8.639a7.681,7.681,0,0,0,5.855,12.654,36.635,36.635,0,0,0,21.264-6.8L201.4,57.388,250.725,82.05l42.009,37.823a19.065,19.065,0,0,1,3.642,4.449l1.654.319,19.906-11.5L387.688,97.6V0Z" fill="url(#linear-gradient-2)"/>
      <path d="M317.937,113.145,387.688,97.6V63.561L311.943,88.953a9.692,9.692,0,0,0-6.434,11.035l.067.346a11.668,11.668,0,0,1-4.564,11.639h0a11.668,11.668,0,0,1-8.436,2.149l-7.314-.977h0l7.473,6.728a19.065,19.065,0,0,1,3.642,4.449l1.654.319Z" fill="url(#linear-gradient-3)"/>
      <path id="c-i_dg-o" data-name="c-i dg-o" d="M266.226,73.805l-2.387.684a20.747,20.747,0,0,1-14.655-1.223l-8.776-4.192a20.747,20.747,0,0,1-8.591-7.628l-4.463-7.053A20.437,20.437,0,0,0,217.2,46.162h0a20.437,20.437,0,0,0-19.035,2.557l-3.552,2.55A38.664,38.664,0,0,0,184.4,62.152l-4,6.379a41.075,41.075,0,0,1-10.969,11.644h0a36.635,36.635,0,0,1-21.264,6.8,7.632,7.632,0,0,1-3.517-.844l-.01,0,2.594,1.367a33.3,33.3,0,0,0,25.727,2.235h0A33.3,33.3,0,0,0,190.6,76.31l4.241-6.464a15.939,15.939,0,0,1,6.348-5.586h0a15.939,15.939,0,0,1,14.107.074l31.378,15.689,8.841,4.188a14.587,14.587,0,0,0,13.088-.3h0a14.587,14.587,0,0,0,6.025-6.013l6.89-12.908-3.52,2.781A34.155,34.155,0,0,1,266.226,73.805Z" fill="url(#linear-gradient-4)"/>
      <path id="c-i_dg-w" data-name="c-i dg-w" d="M292.734,119.873,250.725,82.05l-1.428-.714,2.319,18.485a6.243,6.243,0,0,1-6.339,7.184h0a5.368,5.368,0,0,0-5.343,4.851l-1.287,13.3a12.324,12.324,0,0,1-7.333,10.106l-8.541,3.732a12.324,12.324,0,0,0-7.365,12.079l.336,5.259a12.345,12.345,0,0,1-11.019,13.121,16.519,16.519,0,0,1-15.248-7.141l-1.6-2.348h0a13.574,13.574,0,0,0-10.19-6.55l-.845-.092a13.575,13.575,0,0,0-12.032,4.968l-7.007,8.243a.665.665,0,0,1-1.147-.613h0a13.849,13.849,0,0,0-5.868-15.454h0a13.849,13.849,0,0,0-18.025,2.725l-4.807,5.68a14.212,14.212,0,0,0,1.851,20.182h0a14.212,14.212,0,0,0,18.749-.663h0a1.394,1.394,0,0,1,2.331.827,16.189,16.189,0,0,0,22.156,12.412,2.613,2.613,0,0,1,3.594,2.165l.08.818a11.019,11.019,0,0,0,1.963,5.415,10.66,10.66,0,0,0,10.08,4.336l4.021-.546a10.639,10.639,0,0,0,7.582-4.89l.738-1.177c.111-.178.207-.363.31-.545l.115.07,12.639,4.031a20.043,20.043,0,0,0,17.325-2.5l.131-.089a5.363,5.363,0,0,0,2.338-4.888l-.375-4.488,2.653.941a34.4,34.4,0,0,0,14.817,1.817l.208-.02a9.063,9.063,0,0,0,8.184-9.525l-.469-8.449,1.195.352a16.809,16.809,0,0,0,16.569-3.978,18.3,18.3,0,0,0,3.82-20.5l7.1-.657a12.24,12.24,0,0,0,11.05-10.961l.241-2.387A19.086,19.086,0,0,0,292.734,119.873Z" fill="url(#linear-gradient-5)"/>
      <path id="c-i_w-o-3" data-name="c-i w-o" d="M147,148.779c-9.419-3.338-14.538,4.757-19.049,10.088h0a14.212,14.212,0,0,0,1.851,20.182h0l.019.015a2.141,2.141,0,0,0,3.138-.555l15.846-24.582A3.631,3.631,0,0,0,147,148.779Z" fill="url(#linear-gradient-6)"/>
      <path id="c-i_w-o-4" data-name="c-i w-o" d="M177.687,153.41l-.845-.092a13.575,13.575,0,0,0-12.032,4.968l-7.007,8.243c-.239.282-4.606,6.632-4.606,6.632a12.322,12.322,0,0,0-.533,11.546,5.906,5.906,0,0,0,.378.678,5.727,5.727,0,0,0,9.506.075l17.837-26.181a3.769,3.769,0,0,0-2.7-5.868Z" fill="url(#linear-gradient-7)"/>
      <path id="c-i_w-o-5" data-name="c-i w-o" d="M180.351,183.787c-.657,1.072-1.283,2.129-1.851,3.11a12.724,12.724,0,0,0-.89,10.868,12.108,12.108,0,0,0,.886,2l.065.095a4.7,4.7,0,0,0,7.681-.114l9.5-13.636a5.015,5.015,0,0,0-3.267-7.833C188.5,177.659,183.667,178.381,180.351,183.787Z" fill="url(#linear-gradient-8)"/>
    </g>
  </g>
</svg>
