<svg xmlns="http://www.w3.org/2000/svg" xmlns:xlink="http://www.w3.org/1999/xlink" viewBox="0 0 380.643 229.668">
  <defs>
    <linearGradient id="linear-gradient" x1="112.234" y1="42.459" x2="268.088" y2="42.459" gradientUnits="userSpaceOnUse">
      <stop offset="0" stop-color="#fff"/>
      <stop offset="1" stop-color="#fff" stop-opacity="0"/>
    </linearGradient>
    <linearGradient id="linear-gradient-2" x1="9.229" y1="133.533" x2="127.844" y2="133.533" xlink:href="#linear-gradient"/>
    <linearGradient id="linear-gradient-3" x1="340.923" y1="159.026" x2="185.713" y2="159.026" xlink:href="#linear-gradient"/>
    <linearGradient id="linear-gradient-4" x1="-6400.524" y1="2158.72" x2="-6400.524" y2="2197.343" gradientTransform="translate(6453.506 -3581.204) scale(1 1.722)" xlink:href="#linear-gradient"/>
    <linearGradient id="linear-gradient-5" x1="-6431.001" y1="-205.759" x2="-6385.07" y2="-205.759" gradientTransform="translate(2504.455 6098.073) rotate(66.193)" gradientUnits="userSpaceOnUse">
      <stop offset="0" stop-color="#fff"/>
      <stop offset="1" stop-color="#02bda5"/>
    </linearGradient>
    <linearGradient id="linear-gradient-6" x1="476.749" y1="6.657" x2="109.91" y2="187.848" gradientUnits="userSpaceOnUse">
      <stop offset="0.001" stop-color="#02bda5" stop-opacity="0"/>
      <stop offset="1" stop-color="#02bda5"/>
    </linearGradient>
  </defs>
  <title>change-startups</title>
  <g id="change-illustrations">
    <g id="change-startups">
      <path id="c-i_w-o" data-name="c-i w-o" d="M246.588,42.459h-.021a3.057,3.057,0,0,1-2.816-1.766,31.244,31.244,0,0,0-28.44-18.328h-.072a12.926,12.926,0,0,1-10.53-5.089,42.456,42.456,0,0,0-75.932,17.463,11.455,11.455,0,0,1-7.5,8.835,21.238,21.238,0,0,0-14.411,20.89c.409,11.5,10.213,20.455,21.724,20.455H246.08c11.511,0,21.316-8.951,21.724-20.455A21.23,21.23,0,0,0,246.588,42.459Z" fill="url(#linear-gradient)"/>
      <path id="c-i_w-o-2" data-name="c-i w-o" d="M15.945,133.533h.014a2.077,2.077,0,0,0,1.914-1.2A21.232,21.232,0,0,1,37.2,119.877h.049a8.784,8.784,0,0,0,7.156-3.458A28.851,28.851,0,0,1,96,128.286a7.784,7.784,0,0,0,5.1,6,14.432,14.432,0,0,1,9.793,14.2,14.653,14.653,0,0,1-14.763,13.9H16.291a14.653,14.653,0,0,1-14.763-13.9A14.427,14.427,0,0,1,15.945,133.533Z" fill="url(#linear-gradient-2)"/>
      <path id="c-i_w-o-3" data-name="c-i w-o" d="M359.623,172.92a32.984,32.984,0,0,0-26.1-32.247,6.2,6.2,0,0,1-4.96-6.178q0-.156,0-.313a22.036,22.036,0,0,0-37.05-16.155,46.887,46.887,0,0,0-69.667,41v.032a2.75,2.75,0,0,1-2.833,2.766q-.369-.014-.742-.015a22.009,22.009,0,0,0-18.48,10.049,4.255,4.255,0,0,1-3.558,1.982h-.024a16.046,16.046,0,0,0-16.028,16.82c.406,8.631,7.84,15.272,16.481,15.272h131.9v-.1A32.984,32.984,0,0,0,359.623,172.92Z" fill="url(#linear-gradient-3)"/>
      <rect id="c-i_w-o-4" data-name="c-i w-o" x="26.213" y="136.442" width="53.539" height="92.198" transform="translate(198.603 60.382) rotate(66.193)" fill="url(#linear-gradient-4)"/>
      <path id="c-i_white" data-name="c-i white" d="M305.956,121.045c25.323-11.173,63.065-63.91,74.073-79.864a3.444,3.444,0,0,0-2.369-5.37c-19.2-2.624-83.6-10.3-108.923.875L103.242,109.7l37.22,84.359Z" fill="#fff"/>
      <path id="c-i_white-2" data-name="c-i white" d="M182.653,74.667,90.009,72.435a2.06,2.06,0,0,0-1.935,2.891L103.242,109.7Z" fill="#fff"/>
      <path id="c-i_dg" data-name="c-i dg" d="M219.873,159.026l-60.8,69.933a2.06,2.06,0,0,1-3.44-.52l-15.167-34.377Z" fill="#02bda5"/>
      <path id="c-i_dg-w" data-name="c-i dg-w" d="M105.763,187.968,84.352,139.441a3.484,3.484,0,0,1,3.142-4.89l26.556-.35,15.6,35.365-18.161,19.379A3.484,3.484,0,0,1,105.763,187.968Z" fill="url(#linear-gradient-5)"/>
      <path id="c-i_white-3" data-name="c-i white" d="M84.352,139.441,90.468,153.3a2.974,2.974,0,0,0,4.891.833L114.041,134.2l-26.547.35A3.484,3.484,0,0,0,84.352,139.441Z" fill="#fff"/>
      <circle id="c-i_llg" data-name="c-i llg" cx="264.539" cy="88.725" r="24.06" fill="#b8f5e3"/>
      <path id="c-i_dg-o" data-name="c-i dg-o" d="M379.508,41.935a1.114,1.114,0,0,0-1.572-1.533c-15.12,10.953-59.484,42.467-84.042,53.3l-12.669,5.59-96.8,42.711a2.543,2.543,0,0,1-2.784-4.162c10.438-10.051,17.917-17.595,18.386-17.8l-78.172,31.841,6.548,14.841,6.636,15.04,5.426,12.3,165.494-73.017C330.894,110.042,367.874,58.732,379.508,41.935Z" fill="url(#linear-gradient-6)"/>
      <rect id="c-i_dg-2" data-name="c-i dg" x="159.134" y="90.966" width="4.846" height="86.796" rx="1.62" ry="1.62" transform="translate(219.274 -67.684) rotate(66.193)" fill="#02bda5"/>
    </g>
  </g>
</svg>
