<svg xmlns="http://www.w3.org/2000/svg" xmlns:xlink="http://www.w3.org/1999/xlink" viewBox="0 0 350 200">
  <defs>
    <linearGradient id="linear-gradient" x1="64.137" y1="173.632" x2="64.137" y2="104.026" gradientUnits="userSpaceOnUse">
      <stop offset="0.001" stop-color="#02bda5" stop-opacity="0"/>
      <stop offset="1" stop-color="#02bda5"/>
    </linearGradient>
    <linearGradient id="linear-gradient-2" x1="274.497" y1="65.797" x2="274.497" y2="1.242" xlink:href="#linear-gradient"/>
    <linearGradient id="linear-gradient-3" x1="177.457" y1="130.002" x2="177.457" y2="39.273" xlink:href="#linear-gradient"/>
  </defs>
  <title>change-stocks</title>
  <g id="change-illustrations">
    <g id="change-stocks">
      <path id="c-i_dg-o" data-name="c-i dg-o" d="M120.835,112.1H99.946V112.1a25.69,25.69,0,0,1-9.053-1.7l-13.885-5.3a25.688,25.688,0,0,0-9.284-1.714H67.7a27.648,27.648,0,0,0-19.094,8.191L5.984,152.79A2.341,2.341,0,0,0,7.6,156.815H72.387a10.853,10.853,0,0,0,7.545-3.054L123.008,112.1Z" fill="url(#linear-gradient)"/>
      <path id="c-i_white" data-name="c-i white" d="M99.946,103.381H67.725a25.688,25.688,0,0,1,9.284,1.714l13.885,5.3a25.69,25.69,0,0,0,9.053,1.7c.079,0,.158.008.237.007h.1a27.7,27.7,0,0,0,19.163-8.338l.393-.386Z" fill="#fff"/>
      <path id="c-i_white-2" data-name="c-i white" d="M209.224,39.57H195.932a25.748,25.748,0,0,1,9.429,1.844l3.863,1.533.938.372a25.706,25.706,0,0,0,9.629,1.836h.374a26.944,26.944,0,0,0,15.664-5.585Z" fill="#fff"/>
      <path id="c-i_dg-o-2" data-name="c-i dg-o" d="M229.08,34.458h9.991a.917.917,0,0,1,.638,1.574c-1.281,1.246-3,2.882-3.88,3.539a26.944,26.944,0,0,1-15.664,5.585h74.951c.041,0,.081-.006.121-.007,7.192-.172,14.232-3.415,19.832-9.418l.633-.678a1.868,1.868,0,0,1,1.366-.595h10.185a1.579,1.579,0,0,0,1.353-2.387L311.5,3.245A6.608,6.608,0,0,0,303.258.517L228.572,31.923A1.319,1.319,0,0,0,229.08,34.458Z" fill="url(#linear-gradient-2)"/>
      <path id="c-i_dg-o-3" data-name="c-i dg-o" d="M249,45.155H220.165c-.125,0-.249,0-.374,0a25.706,25.706,0,0,1-9.629-1.836l-.938-.372-3.863-1.533a25.748,25.748,0,0,0-9.429-1.844h-.07a27.665,27.665,0,0,0-19.39,8.339L123.13,100.158l-3.29,3.222-.393.386a27.7,27.7,0,0,1-19.163,8.338H174.91V112.1a27.64,27.64,0,0,0,19.488-8.331L251.424,47.91a32.123,32.123,0,0,1,3.207-2.755Z" fill="url(#linear-gradient-3)"/>
      <rect id="c-i_dg" data-name="c-i dg" x="194.977" y="72.328" width="54.02" height="28.935" fill="#02bda5"/>
      <rect id="c-i_dg-2" data-name="c-i dg" x="67.897" y="136.127" width="61.783" height="25.641" fill="#02bda5"/>
      <path id="c-i_llg" data-name="c-i llg" d="M343.263,200H273.7l5.573-170.916h63.986A6.748,6.748,0,0,1,350,35.843v157.4A6.748,6.748,0,0,1,343.263,200Z" fill="#b8f5e3"/>
      <path id="c-i_white-3" data-name="c-i white" d="M275.049,31.03,240.118,68.474c-8.237,8.83-19.586,11.7-29.955,7.589l-4.8-1.906c-9.9-3.93-20.73-1.495-28.889,6.5L119.447,136.51c-8.061,7.9-18.736,10.373-28.554,6.627l-13.885-5.3c-9.752-3.721-20.355-1.3-28.4,6.478L1.822,189.558C-1.71,192.974.237,200,4.716,200H275.945c5.346,0,9.679-5.375,9.679-12.005V37.03C285.624,30.239,279.191,26.589,275.049,31.03Z" fill="#fff"/>
    </g>
  </g>
</svg>
