<svg xmlns="http://www.w3.org/2000/svg" xmlns:xlink="http://www.w3.org/1999/xlink" viewBox="0 0 382.17 109.9"><defs><style>.cls-1{fill:url(#linear-gradient);}</style><linearGradient id="linear-gradient" y1="54.95" x2="382.17" y2="54.95" gradientUnits="userSpaceOnUse"><stop offset="0" stop-color="#16e0da"/><stop offset="0.61" stop-color="#19c3ed"/><stop offset="1" stop-color="#0d9fd3"/></linearGradient></defs><title>Change-logo-green</title><g id="Layer_2" data-name="Layer 2"><g id="Layer_1-2" data-name="Layer 1"><path id="Change-logo-green" class="cls-1" d="M46.21,63.21a16.85,16.85,0,1,1,0-13.46l13.5-4a30.83,30.83,0,1,0,0,21.46ZM82.75,85.65H67V0h15.8V32.3c3.8-4.5,10.22-6.4,15.8-6.4,14.86,0,21.75,10.3,21.75,23.07V85.65H104.49v-34c0-6.5-3.21-11.58-10.81-11.58-6.65,0-10.58,5-10.93,11.35V85.65Zm63.59-33.48L160.72,50c3.32-.47,4.4-2.13,4.4-4.14,0-4.14-3.21-7.57-9.87-7.57-6.89,0-10.69,4.37-11.16,9.46l-14-3c.95-9.11,9.39-19.16,25.07-19.16,18.54,0,25.43,10.41,25.43,22.12V76.43a66.21,66.21,0,0,0,.71,9.22H166.78a38.86,38.86,0,0,1-.6-7c-3,4.61-8.55,8.64-17.23,8.64-12.47,0-20.08-8.4-20.08-17.51,0-10.41,7.73-16.21,17.47-17.63Zm18.78,9.94V59.5l-13.19,2c-4,.59-7.25,2.83-7.25,7.33,0,3.43,2.49,6.74,7.6,6.74,6.66,0,12.84-3.19,12.84-13.48ZM207.9,85.65H192.1V27.44h15.33v7.22c3.56-6,10.57-8.76,16.87-8.76,14.5,0,21.15,10.3,21.15,23.07V85.65h-15.8v-34c0-6.5-3.21-11.58-10.82-11.58-6.89,0-10.93,5.31-10.93,12.06V85.65Zm60.32-.6c1.07,6.4,6.19,11,13.67,11,10,0,15.56-5,15.56-16.21V75.59c-2.38,3.79-7.84,7.46-16.28,7.46-15.56,0-27.2-12-27.2-28.28,0-15.38,11.16-28.39,27.2-28.39,9.28,0,14.62,4,16.64,7.92V27.44H313V79.38c0,16-8.67,30.52-30.66,30.52-16,0-26.73-9.94-28.39-21.06Zm29.47-30.28c0-9-6.18-14.66-13.78-14.66-7.84,0-14,5.67-14,14.66s5.83,14.79,14,14.79,13.78-5.8,13.78-14.79ZM365.9,66a17.51,17.51,0,0,1-31.66-5.18h33.93l13.69.08a30.85,30.85,0,1,0-2.73,9ZM351.21,39.15a17.52,17.52,0,0,1,16.21,10.9H335a17.52,17.52,0,0,1,16.22-10.9Z"/></g></g></svg>